<mxfile host="app.diagrams.net" modified="2021-01-11T10:24:02.681Z" agent="5.0 (Windows)" etag="NbFqgEKHodvpk9KKtsjT" version="14.1.8" type="github">
  <diagram id="331G17dqdwrkPqkKEzAv" name="Page-1">
    <mxGraphModel dx="1038" dy="547" grid="1" gridSize="10" guides="1" tooltips="1" connect="1" arrows="1" fold="1" page="1" pageScale="1" pageWidth="1169" pageHeight="827" math="0" shadow="0">
      <root>
        <mxCell id="0" />
        <mxCell id="1" parent="0" />
        <mxCell id="idJRNrAaGVRkphUujmik-1" value="PROCESSING OF IMPREST WARRANT (TEMPORARY WARRANTS)" style="swimlane;html=1;childLayout=stackLayout;resizeParent=1;resizeParentMax=0;horizontal=1;startSize=20;horizontalStack=0;" vertex="1" parent="1">
          <mxGeometry x="170" y="9" width="560" height="810" as="geometry" />
        </mxCell>
        <mxCell id="idJRNrAaGVRkphUujmik-2" value="Staff" style="swimlane;html=1;startSize=20;horizontal=0;" vertex="1" parent="idJRNrAaGVRkphUujmik-1">
          <mxGeometry y="20" width="560" height="120" as="geometry" />
        </mxCell>
        <mxCell id="idJRNrAaGVRkphUujmik-12" value="Start" style="rounded=1;whiteSpace=wrap;html=1;" vertex="1" parent="idJRNrAaGVRkphUujmik-2">
          <mxGeometry x="80" y="10" width="90" height="40" as="geometry" />
        </mxCell>
        <mxCell id="idJRNrAaGVRkphUujmik-15" value="Prepare request for activities as per work plans" style="rounded=0;whiteSpace=wrap;html=1;" vertex="1" parent="idJRNrAaGVRkphUujmik-2">
          <mxGeometry x="220" y="50" width="120" height="60" as="geometry" />
        </mxCell>
        <mxCell id="idJRNrAaGVRkphUujmik-14" value="" style="edgeStyle=orthogonalEdgeStyle;rounded=0;orthogonalLoop=1;jettySize=auto;html=1;" edge="1" parent="idJRNrAaGVRkphUujmik-2" source="idJRNrAaGVRkphUujmik-12" target="idJRNrAaGVRkphUujmik-15">
          <mxGeometry relative="1" as="geometry">
            <mxPoint x="245" y="30" as="targetPoint" />
          </mxGeometry>
        </mxCell>
        <mxCell id="idJRNrAaGVRkphUujmik-3" value="HoD" style="swimlane;html=1;startSize=20;horizontal=0;" vertex="1" parent="idJRNrAaGVRkphUujmik-1">
          <mxGeometry y="140" width="560" height="130" as="geometry" />
        </mxCell>
        <mxCell id="idJRNrAaGVRkphUujmik-16" value="Nominate staff for the event" style="whiteSpace=wrap;html=1;rounded=0;" vertex="1" parent="idJRNrAaGVRkphUujmik-3">
          <mxGeometry x="210" y="40" width="140" height="60" as="geometry" />
        </mxCell>
        <mxCell id="idJRNrAaGVRkphUujmik-4" value="Imprest Holder" style="swimlane;html=1;startSize=20;horizontal=0;" vertex="1" parent="idJRNrAaGVRkphUujmik-1">
          <mxGeometry y="270" width="560" height="120" as="geometry" />
        </mxCell>
        <mxCell id="idJRNrAaGVRkphUujmik-18" value="Fill in Imprest/Warrant Application Form" style="whiteSpace=wrap;html=1;rounded=0;" vertex="1" parent="idJRNrAaGVRkphUujmik-4">
          <mxGeometry x="210" y="40" width="140" height="60" as="geometry" />
        </mxCell>
        <mxCell id="idJRNrAaGVRkphUujmik-9" value="MFA" style="swimlane;html=1;startSize=20;horizontal=0;" vertex="1" parent="idJRNrAaGVRkphUujmik-1">
          <mxGeometry y="390" width="560" height="120" as="geometry" />
        </mxCell>
        <mxCell id="idJRNrAaGVRkphUujmik-20" value="Authorization of warrant" style="whiteSpace=wrap;html=1;rounded=0;" vertex="1" parent="idJRNrAaGVRkphUujmik-9">
          <mxGeometry x="220" y="30" width="120" height="60" as="geometry" />
        </mxCell>
        <mxCell id="idJRNrAaGVRkphUujmik-10" value="CEO" style="swimlane;html=1;startSize=20;horizontal=0;" vertex="1" parent="idJRNrAaGVRkphUujmik-1">
          <mxGeometry y="510" width="560" height="120" as="geometry" />
        </mxCell>
        <mxCell id="idJRNrAaGVRkphUujmik-22" value="Approval/Signing" style="whiteSpace=wrap;html=1;rounded=0;" vertex="1" parent="idJRNrAaGVRkphUujmik-10">
          <mxGeometry x="220" y="50" width="120" height="60" as="geometry" />
        </mxCell>
        <mxCell id="idJRNrAaGVRkphUujmik-11" value="APC" style="swimlane;html=1;startSize=20;horizontal=0;" vertex="1" parent="idJRNrAaGVRkphUujmik-1">
          <mxGeometry y="630" width="560" height="180" as="geometry" />
        </mxCell>
        <mxCell id="idJRNrAaGVRkphUujmik-17" value="" style="edgeStyle=orthogonalEdgeStyle;rounded=0;orthogonalLoop=1;jettySize=auto;html=1;" edge="1" parent="idJRNrAaGVRkphUujmik-1" source="idJRNrAaGVRkphUujmik-15" target="idJRNrAaGVRkphUujmik-16">
          <mxGeometry relative="1" as="geometry" />
        </mxCell>
        <mxCell id="idJRNrAaGVRkphUujmik-19" value="" style="edgeStyle=orthogonalEdgeStyle;rounded=0;orthogonalLoop=1;jettySize=auto;html=1;" edge="1" parent="idJRNrAaGVRkphUujmik-1" source="idJRNrAaGVRkphUujmik-16" target="idJRNrAaGVRkphUujmik-18">
          <mxGeometry relative="1" as="geometry" />
        </mxCell>
        <mxCell id="idJRNrAaGVRkphUujmik-21" value="" style="edgeStyle=orthogonalEdgeStyle;rounded=0;orthogonalLoop=1;jettySize=auto;html=1;" edge="1" parent="idJRNrAaGVRkphUujmik-1" source="idJRNrAaGVRkphUujmik-18" target="idJRNrAaGVRkphUujmik-20">
          <mxGeometry relative="1" as="geometry" />
        </mxCell>
        <mxCell id="idJRNrAaGVRkphUujmik-23" value="" style="edgeStyle=orthogonalEdgeStyle;rounded=0;orthogonalLoop=1;jettySize=auto;html=1;" edge="1" parent="idJRNrAaGVRkphUujmik-1" source="idJRNrAaGVRkphUujmik-20" target="idJRNrAaGVRkphUujmik-22">
          <mxGeometry relative="1" as="geometry" />
        </mxCell>
        <mxCell id="idJRNrAaGVRkphUujmik-28" value="" style="edgeStyle=orthogonalEdgeStyle;rounded=0;orthogonalLoop=1;jettySize=auto;html=1;" edge="1" parent="1" source="idJRNrAaGVRkphUujmik-26" target="idJRNrAaGVRkphUujmik-29">
          <mxGeometry relative="1" as="geometry">
            <mxPoint x="450" y="789" as="targetPoint" />
          </mxGeometry>
        </mxCell>
        <mxCell id="idJRNrAaGVRkphUujmik-26" value="Voucher payment process" style="shape=process;whiteSpace=wrap;html=1;backgroundOutline=1;" vertex="1" parent="1">
          <mxGeometry x="380" y="659" width="140" height="60" as="geometry" />
        </mxCell>
        <mxCell id="idJRNrAaGVRkphUujmik-25" value="" style="edgeStyle=orthogonalEdgeStyle;rounded=0;orthogonalLoop=1;jettySize=auto;html=1;" edge="1" parent="1" source="idJRNrAaGVRkphUujmik-22" target="idJRNrAaGVRkphUujmik-26">
          <mxGeometry relative="1" as="geometry">
            <mxPoint x="450" y="689" as="targetPoint" />
          </mxGeometry>
        </mxCell>
        <mxCell id="idJRNrAaGVRkphUujmik-29" value="End" style="rounded=1;whiteSpace=wrap;html=1;" vertex="1" parent="1">
          <mxGeometry x="410" y="767" width="80" height="50" as="geometry" />
        </mxCell>
      </root>
    </mxGraphModel>
  </diagram>
</mxfile>
